<svg xmlns="http://www.w3.org/2000/svg" width="1400" height="760" viewBox="0 0 1400 760">
<defs><linearGradient id="bg" x2="1" y2="1"><stop stop-color="#071b35"/><stop offset="1" stop-color="#10496b"/></linearGradient><marker id="arrow" markerWidth="10" markerHeight="10" refX="9" refY="3" orient="auto"><path d="M0 0L0 6L9 3z" fill="#69ddff"/></marker></defs>
<rect width="1400" height="760" rx="28" fill="url(#bg)"/><g font-family="Arial" fill="white"><text x="60" y="70" font-size="35" font-weight="700">End-to-end Amazon EKS web application platform</text><text x="60" y="105" font-size="19" fill="#b9d9e8">Terraform infrastructure · ECR images · Kubernetes workloads · observability · scaling</text></g>
<g font-family="Arial" text-anchor="middle" fill="white"><rect x="70" y="260" width="180" height="100" rx="14" fill="#18587a" stroke="#69ddff"/><text x="160" y="301" font-size="20">Developer / CI</text><text x="160" y="328" font-size="15" fill="#c8e4ef">build and deploy</text><rect x="335" y="125" width="190" height="92" rx="14" fill="#3f3b79" stroke="#b29cff"/><text x="430" y="165" font-size="20">Amazon ECR</text><text x="430" y="192" font-size="15" fill="#e2d9ff">immutable images</text><rect x="335" y="450" width="190" height="92" rx="14" fill="#3f3b79" stroke="#b29cff"/><text x="430" y="490" font-size="20">CloudWatch</text><text x="430" y="517" font-size="15" fill="#e2d9ff">Container Insights</text><rect x="620" y="160" width="520" height="430" rx="24" fill="#0b324f" stroke="#69ddff"/><text x="880" y="205" font-size="22" font-weight="700">Amazon EKS · private subnets across AZs</text><rect x="685" y="285" width="150" height="92" rx="12" fill="#20779d"/><text x="760" y="325" font-size="19">Ingress / ALB</text><text x="760" y="351" font-size="14" fill="#c8e4ef">public entry</text><rect x="900" y="285" width="170" height="92" rx="12" fill="#20779d"/><text x="985" y="325" font-size="19">Web API pods</text><text x="985" y="351" font-size="14" fill="#c8e4ef">HPA + PDB</text><rect x="785" y="450" width="170" height="92" rx="12" fill="#20779d"/><text x="870" y="490" font-size="19">Worker pods</text><text x="870" y="517" font-size="14" fill="#c8e4ef">async jobs</text><rect x="1215" y="170" width="135" height="82" rx="12" fill="#4a3973" stroke="#b29cff"/><text x="1282" y="218" font-size="19">KMS</text><rect x="1215" y="335" width="135" height="82" rx="12" fill="#4a3973" stroke="#b29cff"/><text x="1282" y="383" font-size="19">RDS</text><rect x="1215" y="500" width="135" height="82" rx="12" fill="#4a3973" stroke="#b29cff"/><text x="1282" y="548" font-size="19">Redis</text></g>
<g fill="none" stroke="#69ddff" stroke-width="4" marker-end="url(#arrow)"><path d="M250 295H335"/><path d="M525 171 C590 171 610 250 685 315"/><path d="M250 325 C420 325 500 330 685 330"/><path d="M835 331H900"/><path d="M985 377 C985 415 925 435 900 450"/><path d="M985 377 C1090 405 1120 375 1215 375"/><path d="M955 495 C1080 530 1120 540 1215 540"/><path d="M900 285 C1030 165 1100 210 1215 210"/><path d="M620 500H525"/></g>
<text x="60" y="690" font-family="Arial" font-size="18" fill="#c8e4ef">Deployment path: build application image → push to ECR → update Kubernetes deployment → observe and scale the running workload.</text>
</svg>
