<svg xmlns="http://www.w3.org/2000/svg" width="1200" height="600"><rect width="1200" height="600" fill="#071c35"/><text x="55" y="65" font-family="Arial" font-size="32" font-weight="bold" fill="white">Production Amazon EKS platform</text><g font-family="Arial" fill="white" text-anchor="middle"><rect x="70" y="235" width="170" height="90" rx="12" fill="#185273"/><text x="155" y="285">Engineers / CI</text><rect x="330" y="135" width="600" height="310" rx="20" fill="#103450" stroke="#67d9ff"/><text x="630" y="180" font-size="20">VPC · two Availability Zones · private worker subnets</text><rect x="410" y="250" width="190" height="90" rx="12" fill="#21688a"/><text x="505" y="292">EKS control plane</text><rect x="680" y="250" width="180" height="90" rx="12" fill="#21688a"/><text x="770" y="292">Managed nodes</text><rect x="1000" y="135" width="150" height="80" rx="12" fill="#4b3976"/><text x="1075" y="182">KMS</text><rect x="1000" y="355" width="150" height="80" rx="12" fill="#4b3976"/><text x="1075" y="402">CloudWatch</text></g><g stroke="#67d9ff" stroke-width="4" marker-end="url(#x)"><path d="M240 280H410"/><path d="M600 295H680"/><path d="M930 270H1000"/><path d="M860 330L1000 390"/></g><defs><marker id="x" markerWidth="8" markerHeight="8" refX="7" refY="3" orient="auto"><path d="M0 0L0 6L8 3z" fill="#67d9ff"/></marker></defs></svg>
